<svg id="レイヤー_1" data-name="レイヤー 1" xmlns="http://www.w3.org/2000/svg" viewBox="0 0 180.43 180.43"><defs><style>.cls-1{fill:#231916;stroke:#231916;}.cls-2{fill:none;stroke:#fff;stroke-width:1.27px;}.cls-3{fill:#89c122;}</style></defs><title>logo</title><path class="cls-1" d="M98.15,119.25c-1.73-1.8-6.48-6-13.2-6a19,19,0,0,0-11.28,3.53,12.72,12.72,0,0,0-4.4,5.77c.8.11,1.57.16,2.32.22.25,0,.51,0,.76.06a9.89,9.89,0,0,1,3.08-3.68,15.77,15.77,0,0,1,8.32-2.9l0,0,0,0q.56,0,1.14,0a15.26,15.26,0,0,1,9.91,4,14.34,14.34,0,0,1-6.19,2.86,11.15,11.15,0,0,1,.48,2.93,17.92,17.92,0,0,0,8.93-4.62l1.12-1Z"/><path class="cls-1" d="M75.42,127.17A10.56,10.56,0,0,1,77.81,125a14.37,14.37,0,0,0-3.65-1.26,20.86,20.86,0,0,0-2.62-.32,15.47,15.47,0,0,1-9.38-3.23,15.29,15.29,0,0,1,9.91-4c.39,0,.78,0,1.15,0l0,0a17.91,17.91,0,0,1,4.15-2.27,20.45,20.45,0,0,0-5.33-.7c-6.72,0-11.47,4.23-13.2,6l-1,1.1,1.12,1a18.32,18.32,0,0,0,12.38,5,17.59,17.59,0,0,1,2.22.25A15.29,15.29,0,0,1,75.42,127.17Z"/><path class="cls-1" d="M82.65,130.62A9.35,9.35,0,0,0,81.37,128,6.84,6.84,0,0,0,79,129.74a6.57,6.57,0,0,1,.88,1.78c.29.91,0,1.91-.89,3.17a17.89,17.89,0,0,0,1.33,1.45l.72.72C82.4,135.08,83.39,133,82.65,130.62Z"/><path class="cls-1" d="M78.46,135.19h-.18v0a13.34,13.34,0,0,1-3.69-.67,13.48,13.48,0,0,0,3.11,4.21l2.8,2.82,2.09-2.09-2.81-2.8C79.27,136.12,78.82,135.64,78.46,135.19Z"/><path class="cls-1" d="M74.67,129.79a9.1,9.1,0,0,0,2.82.94q1.45-3.14,6-4.1c.39-.08.83-.13,1.33-.18v-.1h0a7.5,7.5,0,0,0-.57-2.81,10,10,0,0,0-1.38.21C78.79,124.61,76,126.69,74.67,129.79Z"/><path class="cls-1" d="M79.17,131.73a1.55,1.55,0,0,0-.08-.23,5.59,5.59,0,0,1-.57,0c-2.78-.07-6.38-1.61-6.93-4.43l-.32,0c-.81-.06-1.71-.13-2.7-.27.3,4.59,5.07,7.47,9.67,7.66C79.12,133.32,79.41,132.46,79.17,131.73Z"/><path class="cls-1" d="M83.59,116.93a16.7,16.7,0,0,0-4.18.87,14.52,14.52,0,0,1,2.19,1.32,9.21,9.21,0,0,1,3.91,7.23h0a4.51,4.51,0,0,1-2.3,3.76c0,.09.08.2.11.29a6.06,6.06,0,0,1,.19,2.9c2.81-1.33,4.95-3.75,4.95-7h0A12.09,12.09,0,0,0,83.59,116.93Z"/><path class="cls-1" d="M101.22,161.62c1.82-1.74,6-6.49,6-13.21a19,19,0,0,0-3.52-11.28,12.82,12.82,0,0,0-5.77-4.4c-.12.8-.17,1.57-.23,2.32,0,.26,0,.51,0,.76a10,10,0,0,1,3.67,3.08,15.55,15.55,0,0,1,2.91,8.32h0s0,0,0,.05c0,.36,0,.75,0,1.14a15.34,15.34,0,0,1-4,9.92,14.56,14.56,0,0,1-2.86-6.19,11.13,11.13,0,0,1-2.92.47,17.94,17.94,0,0,0,4.6,8.93l1,1.11Z"/><path class="cls-1" d="M93.3,138.88a10.22,10.22,0,0,1,2.17,2.4,14.59,14.59,0,0,0,1.27-3.66,20.9,20.9,0,0,0,.31-2.62,15.52,15.52,0,0,1,3.23-9.39,15.34,15.34,0,0,1,4,9.92c0,.39,0,.77,0,1.15l0,0a17.88,17.88,0,0,1,2.26,4.15,20.4,20.4,0,0,0,.7-5.33c0-6.72-4.22-11.47-6-13.2l-1.1-1-1,1.13a18.34,18.34,0,0,0-5,12.36,17.31,17.31,0,0,1-.25,2.24A12.41,12.41,0,0,1,93.3,138.88Z"/><path class="cls-1" d="M89.87,146.11a9.29,9.29,0,0,0,2.58-1.28,6.6,6.6,0,0,0-1.71-2.41,6.37,6.37,0,0,1-1.77.88,3.59,3.59,0,0,1-3.17-.89,19.56,19.56,0,0,0-1.46,1.32l-.72.72C85.41,145.86,87.52,146.85,89.87,146.11Z"/><path class="cls-1" d="M85.29,141.92v-.17h0a13.07,13.07,0,0,1,.69-3.7,13.85,13.85,0,0,0-4.24,3.1L79,144l2.1,2.08,2.8-2.8Q84.63,142.46,85.29,141.92Z"/><path class="cls-1" d="M90.69,138.14a8.69,8.69,0,0,0-.93,2.81c2.07,1,3.45,3,4.09,6,.08.4.13.85.18,1.34h.1a7.43,7.43,0,0,0,2.81-.57c0-.48-.11-.94-.2-1.38C95.87,142.25,93.79,139.44,90.69,138.14Z"/><path class="cls-1" d="M88.76,142.63l.23-.08a5.78,5.78,0,0,1,0-.58c.07-2.77,1.6-6.37,4.42-6.92,0-.11,0-.22,0-.32.06-.81.13-1.71.27-2.7-4.59.31-7.46,5.08-7.65,9.67C87.15,142.59,88,142.87,88.76,142.63Z"/><path class="cls-1" d="M103.55,147.05a16.27,16.27,0,0,0-.87-4.18,13.74,13.74,0,0,1-1.32,2.19,9.18,9.18,0,0,1-7.23,3.9h0a4.48,4.48,0,0,1-3.75-2.29l-.3.11a6.21,6.21,0,0,1-2.91.19c1.34,2.81,3.76,5,7,5h0A12.16,12.16,0,0,0,103.55,147.05Z"/><path class="cls-1" d="M58.87,164.69c1.73,1.8,6.48,6,13.2,6a19.07,19.07,0,0,0,11.28-3.51,12.85,12.85,0,0,0,4.41-5.77c-.81-.12-1.58-.18-2.32-.24l-.77-.05a10,10,0,0,1-3.07,3.68,15.62,15.62,0,0,1-8.32,2.91l0,0,0,0c-.37,0-.76,0-1.15,0a15.29,15.29,0,0,1-9.91-4,14.39,14.39,0,0,1,6.19-2.86,11.58,11.58,0,0,1-.48-2.92A17.82,17.82,0,0,0,59,162.57l-1.12,1Z"/><path class="cls-1" d="M81.6,156.77a10.29,10.29,0,0,1-2.39,2.15,14.13,14.13,0,0,0,3.65,1.28,20.89,20.89,0,0,0,2.63.3,15.49,15.49,0,0,1,9.37,3.24,15.26,15.26,0,0,1-9.91,4q-.58,0-1.14,0l0,0A17.61,17.61,0,0,1,79.63,170a20.37,20.37,0,0,0,5.32.69c6.72,0,11.47-4.22,13.2-6l1-1.11-1.12-1a18.35,18.35,0,0,0-12.38-5,17.17,17.17,0,0,1-2.22-.25A13.06,13.06,0,0,1,81.6,156.77Z"/><path class="cls-1" d="M74.37,153.33a9,9,0,0,0,1.29,2.58,6.67,6.67,0,0,0,2.4-1.72,6.18,6.18,0,0,1-.88-1.76c-.29-.92,0-1.92.9-3.17-.36-.44-.8-.92-1.33-1.45l-.73-.73C74.62,148.87,73.63,151,74.37,153.33Z"/><path class="cls-1" d="M78.56,148.76h.17a13,13,0,0,1,3.7.69,13.62,13.62,0,0,0-3.1-4.24l-2.81-2.8-2.08,2.08,2.8,2.82A15.08,15.08,0,0,1,78.56,148.76Z"/><path class="cls-1" d="M82.34,154.16a8.82,8.82,0,0,0-2.81-.95c-1,2.08-3,3.46-6,4.1a11.6,11.6,0,0,1-1.33.18s0,.07,0,.09h0a7.48,7.48,0,0,0,.57,2.82c.48-.05.94-.11,1.38-.2C78.24,159.33,81,157.25,82.34,154.16Z"/><path class="cls-1" d="M77.85,152.22l.09.23.58,0c2.76.08,6.37,1.61,6.92,4.44h.31c.82.07,1.71.12,2.7.27-.3-4.59-5.07-7.46-9.67-7.66C77.9,150.62,77.62,151.48,77.85,152.22Z"/><path class="cls-1" d="M73.44,167a16.18,16.18,0,0,0,4.17-.87,13.14,13.14,0,0,1-2.18-1.32,9.18,9.18,0,0,1-3.92-7.24h0a4.51,4.51,0,0,1,2.29-3.74c0-.1-.06-.19-.09-.3a5.82,5.82,0,0,1-.19-2.9c-2.82,1.34-5,3.75-5,6.94h0A12.1,12.1,0,0,0,73.44,167Z"/><path class="cls-1" d="M55.81,122.33c-1.82,1.73-6,6.48-6,13.2a19,19,0,0,0,3.52,11.28,12.7,12.7,0,0,0,5.77,4.4c.11-.8.17-1.57.22-2.31l.06-.76a10,10,0,0,1-3.68-3.08,15.68,15.68,0,0,1-2.9-8.32l0,0s0,0,0,0c0-.37,0-.76,0-1.15a15.39,15.39,0,0,1,4-9.92,14.54,14.54,0,0,1,2.86,6.2,11.65,11.65,0,0,1,2.92-.48,17.79,17.79,0,0,0-4.6-8.92l-1-1.13Z"/><path class="cls-1" d="M63.72,145.06a10.37,10.37,0,0,1-2.17-2.39,14.51,14.51,0,0,0-1.26,3.65A19.15,19.15,0,0,0,60,149a15.58,15.58,0,0,1-3.24,9.38,15.39,15.39,0,0,1-4-9.92c0-.39,0-.78,0-1.14,0,0,0,0,0-.05a17.94,17.94,0,0,1-2.27-4.13,20.75,20.75,0,0,0-.69,5.32c0,6.72,4.22,11.47,6,13.21l1.09,1,1-1.11a18.37,18.37,0,0,0,5-12.38,19.6,19.6,0,0,1,.25-2.23A13.69,13.69,0,0,1,63.72,145.06Z"/><path class="cls-1" d="M67.16,137.83a9.1,9.1,0,0,0-2.59,1.29,6.94,6.94,0,0,0,1.71,2.41,6.54,6.54,0,0,1,1.77-.89c.92-.29,1.92,0,3.18.89.44-.36.91-.79,1.45-1.32l.72-.73C71.62,138.08,69.5,137.09,67.16,137.83Z"/><path class="cls-1" d="M71.73,142v.18h0a12.93,12.93,0,0,1-.68,3.69,13.65,13.65,0,0,0,4.23-3.1l2.81-2.8L76,137.89l-2.81,2.81A16.39,16.39,0,0,1,71.73,142Z"/><path class="cls-1" d="M66.33,145.81a9,9,0,0,0,.94-2.82c-2.08-1-3.45-3-4.1-6a11.79,11.79,0,0,1-.18-1.34h-.1a7.38,7.38,0,0,0-2.8.57,12.07,12.07,0,0,0,.19,1.38C61.15,141.69,63.23,144.5,66.33,145.81Z"/><path class="cls-1" d="M68.26,141.31l-.23.09a5.46,5.46,0,0,1,0,.57c-.08,2.77-1.61,6.37-4.43,6.93,0,.11,0,.21,0,.31-.06.81-.12,1.72-.27,2.69,4.59-.29,7.47-5.06,7.66-9.66C69.87,141.36,69,141.08,68.26,141.31Z"/><path class="cls-1" d="M53.47,136.89a15.45,15.45,0,0,0,.88,4.18,14.11,14.11,0,0,1,1.31-2.18A9.18,9.18,0,0,1,62.89,135h0a4.53,4.53,0,0,1,3.75,2.29,2.22,2.22,0,0,0,.31-.1,6.13,6.13,0,0,1,2.89-.19c-1.33-2.81-3.75-4.95-7-4.95h0A12.1,12.1,0,0,0,53.47,136.89Z"/><path class="cls-2" d="M65.15,120.12a8,8,0,0,1,1-.62H74.5V65.15H65.68V64H91.26v1.11H82.44V119.5H90.8s1,.57,1,.61a8.94,8.94,0,0,1-1,.5H66.16A9.34,9.34,0,0,1,65.15,120.12Z"/><path class="cls-1" d="M65.15,120.12a8,8,0,0,1,1-.62H74.5V65.15H65.68V64H89.86l1.4,1.11H82.44V119.5H90.8s1,.57,1,.61a8.94,8.94,0,0,1-1,.5H66.16A9.34,9.34,0,0,1,65.15,120.12Z"/><path class="cls-3" d="M68.25,52.06c1.81,0,3.91,1.36,3.91,2.81a1.24,1.24,0,0,1-.46,1l-8.55,9a91.5,91.5,0,0,0-7.83,9.28A12.52,12.52,0,0,1,55,70.51C55,62.24,60.6,52.06,68.25,52.06ZM95.18,68.42c0-4.93-6-.94-6-7.35,0-3.29,3.19-5.83,6.38-5.83,2.45,0,7.37,1.91,7.91,3.82-.36,7.46-1.73,15.46-6.91,21.27A30.82,30.82,0,0,1,74.08,90.7c-4.65,0-10.38-1.91-13.48-5.46-1.54-1.72-3.36-4.08-3.36-6.54,0-3.1,1.45-5,3.36-7.37L65,66.15l3.55-3.54L87.36,44.69c2.55-2.45,8.37-8.28,8.37-12,0-2.65-1.28-4.1-3.19-4.1a3.35,3.35,0,0,0-3.64,3.26c0,.84.82,2.92.82,4.19,0,4-8,10.27-10.37,13.18a8.12,8.12,0,0,0-5.83-2.08c-12.19,0-23.93,15.46-23.93,27,0,14.09,9.92,23.28,22.84,23.28,16.57,0,24.66-9.73,28.94-17.27,3.55-6.37,4.28-13.1,4.46-19.28,2,2.18,4.82,5.09,8,5.09,5.56,0,12.29-5.46,12.29-11.27,0-2.28-1.27-4.74-3.82-4.74a2.92,2.92,0,0,0-3,2.73c0,2.63,2.55,3.91,2.55,5.55a3.26,3.26,0,0,1-3.09,3.45c-5.83,0-8.11-11.37-17.84-11.37-6.92,0-16,7.28-16,14.55,0,5.29,3.91,6.91,5.73,6.91C92.63,71.78,95.18,70.87,95.18,68.42Z"/><path class="cls-1" d="M67.27,64H74.5V9.63H65.68V8.52H91.26V9.63H82.44V64h7.42l1.4,1.11H66.05Z"/></svg>