<svg id="Layer_1" data-name="Layer 1" xmlns="http://www.w3.org/2000/svg" xmlns:xlink="http://www.w3.org/1999/xlink" viewBox="0 0 796 116"><defs><style>.cls-1,.cls-3,.cls-6{fill:none;}.cls-2{clip-path:url(#clip-path);}.cls-3{stroke:#231f20;stroke-width:0.5px;}.cls-4{fill:#231f20;}.cls-5{fill:#88c540;}.cls-6{stroke:#fff;stroke-width:0.77px;}</style><clipPath id="clip-path"><rect class="cls-1" x="-47" y="-16" width="884.29" height="153.07"/></clipPath></defs><title>logo-name</title><g class="cls-2"><polygon class="cls-3" points="859.33 138.37 -69.02 138.37 -69.02 -31.71 859.33 -31.71 859.33 138.37 859.33 138.37"/></g><polygon class="cls-4" points="222.41 100.88 224.81 100.88 224.81 86.1 222.41 86.1 222.41 85.8 229.37 85.8 229.37 86.1 226.97 86.1 226.97 100.88 229.37 100.88 229.37 101.18 222.41 101.18 222.41 100.88 222.41 100.88"/><path class="cls-4" d="M236.93,93.75,238.42,97h-2.87l1.38-3.28m-1.54,7.13h-1.51l1.55-3.54h3.14l1.62,3.54h-1.53v.3h4.88v-.3h-1.25L238,91.63h-.41l-4,9.25h-1.19v.3h3v-.3Z"/><polygon class="cls-4" points="244.1 92.21 242.59 92.21 242.59 91.91 245.96 91.91 250.86 98.26 250.91 98.26 250.91 92.21 249.44 92.21 249.44 91.91 252.72 91.91 252.72 92.21 251.21 92.21 251.21 101.18 250.91 101.18 244.45 92.92 244.4 92.92 244.4 100.88 245.87 100.88 245.87 101.18 242.59 101.18 242.59 100.88 244.1 100.88 244.1 92.21 244.1 92.21"/><path class="cls-4" d="M255.83,92.21c.46,0,.91-.06,1.36-.06,2.62,0,3.57,2,3.57,4.26,0,.73,0,4.54-3.61,4.54-.34,0-.78,0-1.32-.07V92.21M254,100.88H252.4v.3H255l1.06,0c.41,0,.82,0,1.23,0,2.07,0,5.66-1.24,5.66-4.76,0-2.48-2.22-4.64-5.68-4.64l-1.13,0c-.36,0-.73,0-1.1,0H252.4v.3H254v8.67Z"/><polygon class="cls-4" points="266.53 100.88 268.93 100.88 268.93 86.1 266.53 86.1 266.53 85.8 273.49 85.8 273.49 86.1 271.09 86.1 271.09 100.88 273.49 100.88 273.49 101.18 266.53 101.18 266.53 100.88 266.53 100.88"/><path class="cls-5" d="M283.05,103c1.9,0,3-.26,3-2.85v-16c0-2.59-1.11-2.83-3-2.83v-.7h9.1v.7c-1.87,0-3,.24-3,2.83v16c0,2.59,1.15,2.85,3,2.85v.68h-9.1V103Z"/><path class="cls-5" d="M295,103.11c1.45,0,2.63-.31,2.63-2.56V91.1c0-2.08-1.63-2.18-2.63-2.25v-.59l5.33-.83V92h.07c.48-1.28,2-4.57,5.47-4.57,3.67,0,4,2,4,5.23v7.89c0,2.25,1.18,2.56,2.63,2.56v.59h-8v-.59c1.45,0,2.64-.31,2.64-2.56V93.42c0-3,0-4.33-2.32-4.33-2.06,0-4.54,3.91-4.54,7.2v4.26c0,2.25,1.18,2.56,2.63,2.56v.59h-8v-.59Z"/><path class="cls-5" d="M316.83,95.74c0-2.88.69-7.17,4.16-7.17s4.15,4.29,4.15,7.17-.69,7.16-4.15,7.16-4.16-4.29-4.16-7.16m4.16,8.31c4.43,0,7.23-3.12,7.23-8.31s-2.8-8.31-7.23-8.31-7.24,3.12-7.24,8.31,2.81,8.31,7.24,8.31Z"/><path class="cls-5" d="M342.07,99.89H342c-.45,1.14-1.49,4.16-5.19,4.16-2.91,0-4.43-2-4.43-5.23V91.1c0-2.08-1.6-2.18-2.64-2.25v-.59l5.33-.83V98.05c0,2.88,1,4.23,2.78,4.23,2.24,0,4.22-3.25,4.22-6.4V91.1c0-2.08-1.59-2.18-2.63-2.25v-.59l5.33-.83v12.95c0,2.07,1.59,2.18,2.64,2.24v.59l-5.34.84V99.89Z"/><path class="cls-5" d="M352,92.8c0-1.29,1.08-4.23,3.71-4.23S359,91,359,92.8h-7m9.63,9.51a5.66,5.66,0,0,1-2.43.45c-5.77,0-7.2-5.91-7.2-8.82h10.08v-.76c0-4-2.81-5.75-5.92-5.75-5,0-7,2.81-7,7.86,0,5.81,3,8.76,8.38,8.76a11.13,11.13,0,0,0,4.12-.63v-1.11Z"/><path class="cls-5" d="M367.91,103.47c1.87,0,3-.25,3-2.84v-16c0-2.6-1.14-2.84-3-2.84V81.1h7.2l6.79,19.7H382l6.76-19.7h7.12v.69c-1.9,0-3,.24-3,2.84v16c0,2.59,1.11,2.84,3,2.84v.69H387v-.69c1.87,0,3-.25,3-2.84V83.11h-.08l-7.19,21h-2.53l-7.2-21h-.07v17.52c0,2.59,1.14,2.84,3,2.84v.69h-8v-.69Z"/><path class="cls-5" d="M400.56,93.25c0-1.28,1.08-4.22,3.7-4.22s3.3,2.39,3.3,4.22h-7m9.62,9.52a5.76,5.76,0,0,1-2.42.45c-5.78,0-7.2-5.92-7.2-8.83h10.07v-.76c0-4-2.8-5.74-5.92-5.74-5,0-7,2.8-7,7.85,0,5.82,3,8.76,8.39,8.76a11.12,11.12,0,0,0,4.11-.62v-1.11Z"/><path class="cls-5" d="M416.14,96.19c0-2.9.79-7,3.74-7,2.66,0,3.6,3.74,3.6,7,0,2.94-.8,7-3.6,7-3.19,0-3.74-4-3.74-7m7.34,8.31,5.33-.83v-.59c-1-.06-2.63-.17-2.63-2.25V80.1l-5.33.83v.58c1,.11,2.63.22,2.63,2.25v6.79h-.07a4.63,4.63,0,0,0-4-2.66c-4.82,0-6.37,4.08-6.37,8.3s1.55,8.31,6.37,8.31a4.75,4.75,0,0,0,4-2.56h.07v2.56Z"/><path class="cls-5" d="M431.3,103.57c1.46,0,2.63-.31,2.63-2.56V91.56c0-2.08-1.59-2.18-2.63-2.26v-.58l5.33-.83V101c0,2.25,1.17,2.56,2.64,2.56v.59h-8v-.59m1.9-20.84a2,2,0,1,1,2,2,2,2,0,0,1-2-2Z"/><path class="cls-5" d="M453.75,104a10.65,10.65,0,0,1-3.72.55c-6.09,0-8.79-3.42-8.79-8.79,0-4.6,2.14-7.82,7.48-7.82,2.36,0,5.44.68,5.44,3.22a1.56,1.56,0,0,1-1.62,1.62c-1.32,0-1.6-1.07-1.88-2.21-.17-.77-.79-1.49-2.39-1.49-2.36,0-4.16,1.73-4.16,5.57,0,4.4,2.88,8.62,7.7,8.62a9.08,9.08,0,0,0,1.94-.28v1Z"/><path class="cls-5" d="M465.66,98.51c0,2.36-1.46,4.54-3.71,4.54-1.18,0-2.35-1.22-2.35-3,0-3.21,4.43-3.52,6.06-3.56v2m5.12,5a4.43,4.43,0,0,1-.94.13c-1.07,0-1.49-.42-1.49-1.63V93.39c0-3.22-.86-5.5-5.61-5.5-2.39,0-5.74,1.14-5.74,3.39a1.56,1.56,0,0,0,1.66,1.56A1.64,1.64,0,0,0,460.29,91c0-1.1.28-2,2.42-2,2.9,0,3,2.56,3,5v1.31c-2.64.24-9.15.24-9.15,5.27a3.93,3.93,0,0,0,4.16,3.9,5.49,5.49,0,0,0,4.91-2.53h.08c0,1.5.58,2.53,2.59,2.53a10.32,10.32,0,0,0,2.53-.31v-.72Z"/><path class="cls-5" d="M472.51,103.57c1.45,0,2.63-.31,2.63-2.56V83.76c0-2-1.59-2.14-2.63-2.25v-.58l5.33-.83V101c0,2.25,1.18,2.56,2.63,2.56v.59h-8v-.59Z"/><path class="cls-5" d="M503.93,103.57a17.66,17.66,0,0,1-6.19.93c-6.93,0-10.25-5.26-10.25-12.63,0-6.41,2.07-11.11,9.49-11.11a24.92,24.92,0,0,1,6.64,1l.31,5.43h-.86c-.46-1.94-1.83-5-6.13-5-5.57,0-6,5.92-6,9.48,0,4.47,1,11.35,8.55,11.35a11,11,0,0,0,4.46-.86v1.49Z"/><path class="cls-5" d="M506.39,103.57c1.46,0,2.63-.31,2.63-2.56V83.76c0-2-1.59-2.14-2.63-2.25v-.58l5.33-.83V101c0,2.25,1.18,2.56,2.63,2.56v.59h-8v-.59Z"/><path class="cls-5" d="M517.22,103.57c1.46,0,2.63-.31,2.63-2.56V91.56c0-2.08-1.59-2.18-2.63-2.26v-.58l5.34-.83V101c0,2.25,1.18,2.56,2.64,2.56v.59h-8v-.59m1.91-20.84a2,2,0,1,1,2,2,1.95,1.95,0,0,1-2-2Z"/><path class="cls-5" d="M526.92,103.57c1.46,0,2.63-.31,2.63-2.56V91.56c0-2.08-1.63-2.18-2.63-2.26v-.58l5.34-.83v4.57h.06c.49-1.28,2-4.57,5.47-4.57,3.67,0,4,2,4,5.22V101c0,2.25,1.18,2.56,2.63,2.56v.59h-8v-.59c1.45,0,2.63-.31,2.63-2.56V93.88c0-3,0-4.33-2.32-4.33-2,0-4.53,3.91-4.53,7.2V101c0,2.25,1.17,2.56,2.63,2.56v.59h-8v-.59Z"/><path class="cls-5" d="M546.1,103.57c1.46,0,2.64-.31,2.64-2.56V91.56c0-2.08-1.6-2.18-2.64-2.26v-.58l5.33-.83V101c0,2.25,1.18,2.56,2.64,2.56v.59h-8v-.59M548,82.73a2,2,0,1,1,2,2,1.94,1.94,0,0,1-2-2Z"/><path class="cls-5" d="M568.72,104a10.63,10.63,0,0,1-3.71.55c-6.1,0-8.8-3.42-8.8-8.79,0-4.6,2.15-7.82,7.48-7.82,2.35,0,5.44.68,5.44,3.22a1.56,1.56,0,0,1-1.63,1.62c-1.32,0-1.6-1.07-1.87-2.21-.17-.77-.8-1.49-2.39-1.49-2.36,0-4.15,1.73-4.15,5.57,0,4.4,2.87,8.62,7.69,8.62a9.08,9.08,0,0,0,1.94-.28v1Z"/><path class="cls-4" d="M50.28,74.93a11.41,11.41,0,0,0-8-3.64,11.54,11.54,0,0,0-6.82,2.13,7.74,7.74,0,0,0-2.66,3.48c.49.08,1,.1,1.41.14l.46,0a6,6,0,0,1,1.86-2.22,9.49,9.49,0,0,1,5-1.75v0h0l.69,0a9.28,9.28,0,0,1,6,2.43,8.62,8.62,0,0,1-3.75,1.73A6.3,6.3,0,0,1,44.84,79a10.79,10.79,0,0,0,5.4-2.79l.68-.61-.64-.67Z"/><path class="cls-4" d="M36.54,79.72A6.29,6.29,0,0,1,38,78.41a8.7,8.7,0,0,0-2.21-.76,10.82,10.82,0,0,0-1.59-.19,9.36,9.36,0,0,1-5.66-2,9.27,9.27,0,0,1,6-2.43l.69,0h0a10.69,10.69,0,0,1,2.51-1.37,12.26,12.26,0,0,0-3.22-.42,11.44,11.44,0,0,0-8,3.64l-.63.67.68.61a11.08,11.08,0,0,0,7.48,3,10.9,10.9,0,0,1,1.34.15,8,8,0,0,1,1.13.33Z"/><path class="cls-4" d="M40.92,81.8a6,6,0,0,0-.78-1.56,4.08,4.08,0,0,0-1.46,1,3.9,3.9,0,0,1,.54,1.08,2.14,2.14,0,0,1-.54,1.91,8.51,8.51,0,0,0,.8.88l.44.44a4.1,4.1,0,0,0,1-3.78Z"/><path class="cls-4" d="M38.38,84.56h-.11A7.77,7.77,0,0,1,36,84.14a8.2,8.2,0,0,0,1.88,2.55l1.69,1.7,1.27-1.26-1.7-1.69c-.31-.32-.58-.61-.8-.88Z"/><path class="cls-4" d="M36.09,81.3a5.56,5.56,0,0,0,1.71.57,4.74,4.74,0,0,1,3.61-2.48,8,8,0,0,1,.81-.11v-.06a4.6,4.6,0,0,0-.34-1.7,7.37,7.37,0,0,0-.84.13,6.43,6.43,0,0,0-4.95,3.65Z"/><path class="cls-4" d="M38.81,82.47a.78.78,0,0,0-.05-.14,2.06,2.06,0,0,1-.35,0c-1.67,0-3.85-1-4.18-2.67l-.2,0c-.49,0-1-.07-1.63-.16.19,2.77,3.07,4.51,5.85,4.63.53-.69.7-1.22.56-1.66Z"/><path class="cls-4" d="M41.48,73.53a9.56,9.56,0,0,0-2.52.52,9.62,9.62,0,0,1,1.32.8,5.58,5.58,0,0,1,2.36,4.37,2.72,2.72,0,0,1-1.39,2.27l.07.18a3.65,3.65,0,0,1,.11,1.75,4.72,4.72,0,0,0,3-4.2,7.29,7.29,0,0,0-3-5.69Z"/><path class="cls-4" d="M52.14,100.54a11.13,11.13,0,0,0,1.52-14.8,7.65,7.65,0,0,0-3.49-2.66c-.07.48-.1,1-.14,1.4l0,.46a5.88,5.88,0,0,1,2.22,1.86,9.4,9.4,0,0,1,1.76,5h0s0,0,0,0c0,.23,0,.46,0,.69a9.28,9.28,0,0,1-2.43,6,8.76,8.76,0,0,1-1.73-3.74,6.61,6.61,0,0,1-1.77.28,10.87,10.87,0,0,0,2.79,5.4l.61.68.67-.63Z"/><path class="cls-4" d="M47.35,86.79a6,6,0,0,1,1.31,1.46A9.19,9.19,0,0,0,49.43,86a12.48,12.48,0,0,0,.18-1.58,9.47,9.47,0,0,1,2-5.68,9.32,9.32,0,0,1,2.43,6c0,.24,0,.47,0,.69,0,0,0,0,0,0A10.69,10.69,0,0,1,55.37,88a12.63,12.63,0,0,0,.42-3.22,11.42,11.42,0,0,0-3.65-8l-.67-.63-.61.68a11.07,11.07,0,0,0-3,7.47,9.08,9.08,0,0,1-.15,1.35,6,6,0,0,1-.33,1.13Z"/><path class="cls-4" d="M45.28,91.17a6,6,0,0,0,1.56-.78,4.23,4.23,0,0,0-1-1.46,3.84,3.84,0,0,1-1.07.54,2.17,2.17,0,0,1-1.91-.54,9.83,9.83,0,0,0-.88.8l-.44.43a4.08,4.08,0,0,0,3.78,1Z"/><path class="cls-4" d="M42.51,88.63v-.1h0a7.72,7.72,0,0,1,.42-2.23,8.06,8.06,0,0,0-2.56,1.87l-1.7,1.7,1.26,1.26,1.7-1.7c.31-.31.6-.58.87-.8Z"/><path class="cls-4" d="M45.77,86.35a5.4,5.4,0,0,0-.56,1.7,4.75,4.75,0,0,1,2.47,3.61,8,8,0,0,1,.11.81h.06a4.56,4.56,0,0,0,1.7-.34q0-.43-.12-.84a6.41,6.41,0,0,0-3.66-4.94Z"/><path class="cls-4" d="M44.6,89.06l.14,0c0-.12,0-.23,0-.35.05-1.67,1-3.85,2.68-4.18,0-.07,0-.13,0-.19,0-.49.08-1,.17-1.63-2.78.18-4.52,3.06-4.63,5.84.69.54,1.21.71,1.65.56Z"/><path class="cls-4" d="M53.55,91.74A10,10,0,0,0,53,89.21a8.72,8.72,0,0,1-.8,1.32,5.55,5.55,0,0,1-4.37,2.36h0a2.71,2.71,0,0,1-2.26-1.39l-.19.07a3.77,3.77,0,0,1-1.75.12,4.75,4.75,0,0,0,4.2,3h0a7.34,7.34,0,0,0,5.7-2.94Z"/><path class="cls-4" d="M26.54,102.39a11.4,11.4,0,0,0,8,3.65,11.54,11.54,0,0,0,6.82-2.13A7.74,7.74,0,0,0,44,100.43c-.49-.07-1-.11-1.4-.15-.16,0-.31,0-.46,0a6,6,0,0,1-1.86,2.22,9.38,9.38,0,0,1-5,1.76l0,0,0,0c-.22,0-.45,0-.69,0a9.27,9.27,0,0,1-6-2.43,8.71,8.71,0,0,1,3.74-1.73A7,7,0,0,1,32,98.33a10.74,10.74,0,0,0-5.39,2.78l-.68.62.63.66Z"/><path class="cls-4" d="M40.28,97.61a6.48,6.48,0,0,1-1.45,1.3,8.85,8.85,0,0,0,2.21.77,12.82,12.82,0,0,0,1.59.19,9.38,9.38,0,0,1,5.67,1.95,9.28,9.28,0,0,1-6,2.43c-.23,0-.46,0-.69,0l0,0a10.62,10.62,0,0,1-2.5,1.37,12.61,12.61,0,0,0,3.21.42,11.37,11.37,0,0,0,8-3.65l.64-.66-.68-.62a11.09,11.09,0,0,0-7.48-3,10.91,10.91,0,0,1-1.35-.16,7.14,7.14,0,0,1-1.13-.32Z"/><path class="cls-4" d="M35.91,95.53a5.43,5.43,0,0,0,.78,1.56,4.06,4.06,0,0,0,1.45-1A3.57,3.57,0,0,1,37.61,95a2.11,2.11,0,0,1,.54-1.91,11.64,11.64,0,0,0-.8-.88l-.44-.44a4,4,0,0,0-1,3.78Z"/><path class="cls-4" d="M38.44,92.77h.11a7.78,7.78,0,0,1,2.23.42,8.21,8.21,0,0,0-1.87-2.56l-1.7-1.7L36,90.19l1.69,1.7a8.74,8.74,0,0,1,.8.88Z"/><path class="cls-4" d="M40.73,96a5.33,5.33,0,0,0-1.7-.57,4.77,4.77,0,0,1-3.62,2.47,6,6,0,0,1-.8.11v.06A4.37,4.37,0,0,0,35,99.8a6.9,6.9,0,0,0,.83-.12A6.44,6.44,0,0,0,40.73,96Z"/><path class="cls-4" d="M38,94.86a.58.58,0,0,1,.05.14l.35,0c1.68,0,3.86,1,4.19,2.68h.19c.49,0,1,.08,1.63.17-.18-2.78-3.07-4.51-5.85-4.64-.53.7-.7,1.22-.56,1.67Z"/><path class="cls-4" d="M35.34,103.8a10,10,0,0,0,2.53-.53,7.81,7.81,0,0,1-1.32-.8,5.53,5.53,0,0,1-2.37-4.37,2.72,2.72,0,0,1,1.39-2.26l-.06-.18a3.58,3.58,0,0,1-.12-1.76,4.74,4.74,0,0,0-3,4.2,7.31,7.31,0,0,0,2.94,5.7Z"/><path class="cls-4" d="M24.69,76.79a11.13,11.13,0,0,0-1.52,14.8,7.74,7.74,0,0,0,3.48,2.66c.07-.48.11-1,.14-1.4l0-.46a6.05,6.05,0,0,1-2.22-1.86,9.41,9.41,0,0,1-1.75-5l0,0a0,0,0,0,0,0,0c0-.22,0-.45,0-.69a9.32,9.32,0,0,1,2.43-6A8.84,8.84,0,0,1,27,82.52a7.12,7.12,0,0,1,1.77-.29A10.85,10.85,0,0,0,26,76.84l-.61-.68-.66.63Z"/><path class="cls-4" d="M29.47,90.53a6.09,6.09,0,0,1-1.31-1.45,8.7,8.7,0,0,0-.76,2.21,11.16,11.16,0,0,0-.19,1.59,9.38,9.38,0,0,1-2,5.67,9.28,9.28,0,0,1-2.43-6c0-.23,0-.46,0-.69v0a11,11,0,0,1-1.38-2.5A12.67,12.67,0,0,0,21,92.55a11.42,11.42,0,0,0,3.65,8l.66.63.61-.68A11.1,11.1,0,0,0,29,93a11.09,11.09,0,0,1,.15-1.35,8.82,8.82,0,0,1,.33-1.13Z"/><path class="cls-4" d="M31.55,86.16a5.31,5.31,0,0,0-1.56.78,4,4,0,0,0,1,1.45,3.69,3.69,0,0,1,1.07-.53A2.13,2.13,0,0,1,34,88.4c.27-.22.55-.48.88-.8l.43-.44a4,4,0,0,0-3.77-1Z"/><path class="cls-4" d="M34.31,88.69v.11h0A8.12,8.12,0,0,1,33.89,91a8.29,8.29,0,0,0,2.55-1.87l1.7-1.7L36.88,86.2l-1.7,1.7a11.55,11.55,0,0,1-.87.79Z"/><path class="cls-4" d="M31.05,91a5.78,5.78,0,0,0,.57-1.7,4.78,4.78,0,0,1-2.48-3.62c-.05-.24-.08-.51-.11-.8H29a4.42,4.42,0,0,0-1.7.35c0,.29.07.57.12.83a6.47,6.47,0,0,0,3.66,5Z"/><path class="cls-4" d="M32.22,88.26l-.14.06c0,.11,0,.23,0,.34-.05,1.68-1,3.86-2.67,4.19a1.37,1.37,0,0,0,0,.19c0,.49-.07,1-.16,1.63,2.77-.18,4.51-3.06,4.63-5.85-.7-.52-1.22-.69-1.66-.56Z"/><path class="cls-4" d="M23.28,85.59a9.24,9.24,0,0,0,.53,2.53,7.86,7.86,0,0,1,.79-1.32A5.56,5.56,0,0,1,29,84.43a2.72,2.72,0,0,1,2.26,1.39l.19-.06a3.77,3.77,0,0,1,1.75-.12,4.72,4.72,0,0,0-4.2-3,7.32,7.32,0,0,0-5.69,2.94Z"/><path class="cls-6" d="M30.33,75.45a7.11,7.11,0,0,1,.61-.37h5V42.23H30.66v-.67H46.12v.67H40.79V75.08h5.05s.61.35.61.37a5.46,5.46,0,0,1-.59.3H31a5.86,5.86,0,0,1-.62-.3Z"/><path class="cls-4" d="M30.33,75.45a7.11,7.11,0,0,1,.61-.37h5V42.23H30.66v-.67H45.27l.85.67H40.79V75.08h5.05s.61.35.61.37a5.46,5.46,0,0,1-.59.3H31a5.86,5.86,0,0,1-.62-.3Z"/><path class="cls-5" d="M32.21,34.32c1.09,0,2.36.82,2.36,1.7a.75.75,0,0,1-.27.6l-5.18,5.44a54.52,54.52,0,0,0-4.72,5.61,7.17,7.17,0,0,1-.23-2.2c0-5,3.42-11.15,8-11.15m16.28,9.89c0-3-3.64-.57-3.64-4.45a3.8,3.8,0,0,1,3.86-3.52c1.48,0,4.46,1.15,4.78,2.31-.22,4.5-1,9.34-4.18,12.85a18.59,18.59,0,0,1-13.58,6.27c-2.81,0-6.27-1.15-8.14-3.3-.94-1-2-2.47-2-3.95,0-1.87.88-3,2-4.46l2.64-3.13,2.14-2.14L43.76,29.86c1.54-1.48,5.06-5,5.06-7.25,0-1.6-.77-2.47-1.93-2.47a2,2,0,0,0-2.2,2c0,.5.5,1.76.5,2.53,0,2.42-4.84,6.21-6.27,8a4.88,4.88,0,0,0-3.52-1.26c-7.37,0-14.47,9.34-14.47,16.32,0,8.52,6,14.07,13.81,14.07,10,0,14.9-5.88,17.49-10.44,2.15-3.85,2.59-7.92,2.7-11.65,1.2,1.32,2.91,3.07,4.83,3.07,3.36,0,7.43-3.29,7.43-6.81,0-1.38-.77-2.86-2.31-2.86a1.76,1.76,0,0,0-1.81,1.65c0,1.59,1.54,2.36,1.54,3.35a2,2,0,0,1-1.87,2.09c-3.52,0-4.9-6.87-10.79-6.87-4.18,0-9.67,4.4-9.67,8.79,0,3.19,2.36,4.18,3.46,4.18s2.75-.55,2.75-2Z"/><polygon class="cls-4" points="31.62 41.53 35.98 41.53 35.98 8.67 30.66 8.67 30.66 8 46.12 8 46.12 8.67 40.79 8.67 40.79 41.53 45.27 41.53 46.12 42.2 30.88 42.2 31.62 41.53 31.62 41.53"/><path class="cls-4" d="M103.47,31.13h20V47.52H103.41a19,19,0,0,0,.06-2.16V31.13m0-1.71V21.9c2-.2,2.83-.4,2.83-1s-1.56-.75-1.8-.8l-4-.35,0,1.85v7.87H90.18L86.63,29l.72,2.31,2.35-.2h10.77V47.52H88.74l-3.55-.4.72,2.3,2.34-.2h12a15.39,15.39,0,0,1-3,8.57c-1.68,2.16-5.47,5.37-12.14,7.68l.54,1.29c3-.84,9.32-2.8,13.41-7.36a16.1,16.1,0,0,0,4.15-10.18H123.5V66.76h3.13l-.12-2.15V49.22h15.1l.54-.85a40.4,40.4,0,0,0-4.63-4.51l-2.41,3.66h-8.6V31.13h14.14l.54-.85a36.6,36.6,0,0,0-4.63-4.51l-2.41,3.65h-7.64V21.9c1.27-.2,2.89-.45,2.89-1.1s-1.33-.8-1.33-.8l-4.57-.3v9.72Z"/><path class="cls-4" d="M191.23,27.61a23.53,23.53,0,0,1,4,4.45c0,.55-1,.59-1.39.59l-1.73.05a76.38,76.38,0,0,1-18.93,18.14,63,63,0,0,1-13,7.1c2.9,2.75,5.85,5.05,20.27,5.05a123.79,123.79,0,0,0,19.11-1.23l0,1a2.58,2.58,0,0,0-2.22,2.59c-4.52.45-11.54.54-16.16.54-8.91,0-13.87-1.27-16.6-2.6a17.25,17.25,0,0,1-9-9.95,112.49,112.49,0,0,1-5.46,10.29,5.39,5.39,0,0,1,.17,1.57c0,.69-.44.84-.5.84a1.61,1.61,0,0,1-.95-.84l-1.83-3.57c2.17-1.72,6.68-7.94,7.85-9.86l-.45-2.59a5.3,5.3,0,0,1,.17-1.37c.06-.15.33-.2.5-.2.89,0,3.79,1.37,3.79,2.4,0,.74-2.12,1.62-2.34,1.72.33,1.61.66,2.74,2.67,5.14C165,53.73,171.51,50.15,179.2,43a54.76,54.76,0,0,0,9.47-10.83H150.35l-2.62.05-.56-2.06,4.46.34h19.88V21.67l0-1.32,4.62.54c.83.05,1.17.54,1.17.78,0,.79-1.39,1.08-2.95,1.48v7.34h14.42l2.51-2.88Z"/><path class="cls-4" d="M250.33,36.19l2.77-3.61c.72.65,1.32,1.2,4.51,4.36l-.42,1H233.07V63.51h21.29l2.77-3.76a51,51,0,0,1,4.75,4.51l-.42.95H208.59l-3.31.21L204.56,63l4,.5h21.47V22L230,19.7l4.51.24c.55,0,1.69.06,1.69.76,0,.85-2.29,1.15-3.13,1.3V36.19Z"/><path class="cls-4" d="M270.1,65.05a73.45,73.45,0,0,0,17.62-11.9,78.61,78.61,0,0,0,9.42-10.09c-4.36-4.21-9.8-7.3-15.51-9.94l.7-1.27A69,69,0,0,1,299,40.62c5.39-7.5,8.05-13,8.05-14.35,0-1-1.09-2.25-3.81-3.19.71-1.12.87-1.32,1.85-1.32,2.61,0,6.47,4,6.47,5.58,0,.54-.32.74-.76.79-.65.14-.76.24-.81.39a80.58,80.58,0,0,1-8.6,14.05,36.46,36.46,0,0,1,5.93,6.86,6.65,6.65,0,0,1,1.2,3.52c0,.93-.44,2-1.36,2-1.09,0-1.75-1.18-2.29-2.15a36.53,36.53,0,0,0-5.6-7.6C291.15,55.3,278,63.92,270.91,66.37l-.81-1.32Z"/><path class="cls-4" d="M331.92,25c2,1.91,3.31,2.06,6.58,2.06a92,92,0,0,0,12.9-1.32,3.43,3.43,0,0,0,2-1.13c4.41.24,5,.59,5,1.62s-1,1.12-1.64,1.26a120.31,120.31,0,0,1-18.33,1.63,8.31,8.31,0,0,1-7.13-3.18l.6-.94m28.83-3.77c2.13,1.62,5.82,5.14,5.82,8.38,0,1.66-.87,2.1-1.36,2.1-.92,0-1.19-.93-1.58-2.25a19.46,19.46,0,0,0-3.86-7.54l1-.69m7-.78c3.15,2.16,5.71,5.54,5.71,8,0,1-.39,2.25-1.36,2.25s-1.14-.83-1.69-2.49a16.69,16.69,0,0,0-3.64-7l1-.78M330.18,64.8c2.34-1,8.59-3.57,12.72-9.54a28.17,28.17,0,0,0,4.63-14.36,3.29,3.29,0,0,0-.44-1.95c-7.55.49-14.79,1-18,2.1a12.2,12.2,0,0,1-1.59.84c-1.68,0-4.29-3.38-4.29-6a2.29,2.29,0,0,1,1.3-2.06,6.57,6.57,0,0,0,1.31,3.44c.33.48.81.73,2.28.73.49,0,8.44-.54,9.47-.59,6.15-.39,15.94-.93,22.09-1.32,1,0,5.11-.2,5.6-.54.93-.69,1-.78,1.36-.78A27.53,27.53,0,0,1,371.15,36c.7.24,1.46.64,1.46,1.57s-.54,1.32-1.3,1.32c-.33,0-2.73-.24-4.08-.39-2.18-.2-5.61-.2-6.53-.2-3.59,0-6.48.15-11.7.49.71.44,2.67,1.76,2.67,2.64,0,.59-.66.74-1.15.89-.65,4.84-2.39,18.07-19.64,23.79l-.7-1.32Z"/><path class="cls-4" d="M374.53,53.35C389.66,48,402,35.47,402,34.05a3.29,3.29,0,0,0-2.55-2.25,2.4,2.4,0,0,1,1.47-.83c1.46,0,5.17,3.18,5.17,4.65,0,.44-.33.68-.87.68-.22,0-.61-.09-.71-.09A75.46,75.46,0,0,1,394.12,45,2.66,2.66,0,0,1,395.64,47a7.69,7.69,0,0,1-.33,1.07c-.16,1.08-.16,5.3-.16,6.61s0,4.32.11,5.59.16,2,.16,3.23c0,1.57-.92,1.86-1.14,1.86-.43,0-.6-.39-.82-1.13a5.86,5.86,0,0,1-.59-2.54,5,5,0,0,1,.22-1.37c.16-1,.16-4.76.16-6.08,0-4.84-.05-6.06-.16-7.29a2.73,2.73,0,0,0-.28-1.13,84.22,84.22,0,0,1-17.68,8.77l-.6-1.27Z"/><path class="cls-4" d="M436.68,54.76c2.18,1.32,6.2,3.48,9.36,5.14a7.82,7.82,0,0,0,3.81,1.38c.48,0,1.08,0,1.9-1.47,1.25-2.16,2.72-4.9,4.41-14.1a53.4,53.4,0,0,0,1.09-11.86c-.11,0-9.69.49-17.2,1h-.27c-1.85,6.32-6.69,22.18-23.39,31.44l-.88-1.27c2.89-1.77,10.45-6.61,16.38-17.83a65.45,65.45,0,0,0,4.9-12.09c-7.46.63-10.33.93-12.19,1.27a20.81,20.81,0,0,1-2.12.69c-1.58,0-3.86-3.82-3.86-6.07A2.54,2.54,0,0,1,420,28.91a6.31,6.31,0,0,0,.93,3c.87,1.38,1.3,1.48,2.39,1.48,3.86,0,14-.44,14-.44a50.55,50.55,0,0,0,1.52-7.74c0-1.67-2.93-1.67-3.43-1.67a11.55,11.55,0,0,0-1.3.1c.54-1.91,1.14-2.06,2.39-2.06,3.76,0,6.64,2.11,6.64,3.23,0,.59-.76.84-1.2,1-.27,1.37-.87,4-1.63,7,4-.2,4.62-.2,10.17-.44,2.61-.1,4.36-.25,5.83-.35.27-.24,1.41-1.61,1.63-1.61.44,0,4,3.28,4,3.82s-.16.49-2,.68c-.11,5.73-1.31,16.21-4.62,24.24-2.34,5.53-4.73,6.76-6,6.76-.65,0-.76-.2-1-.93-.11-.45-.43-.88-1.85-1.91-4.57-3.24-4.63-3.28-10.39-7l.54-1.37Z"/><path class="cls-4" d="M467.49,65c10-8.23,13.27-19.2,13.27-34.18,0-1.32-.65-2.2-4.29-2.5.49-1.07.81-1.71,2.06-1.71,3.1,0,6.26,2.5,6.26,3.77,0,.29-.21.49-1,1-.16.1-.16.24-.22,1.37-.81,10.33-1,13.42-3.48,18.95a35.36,35.36,0,0,1-11.86,14.49L467.49,65m50.22-25.56c-3.32,7.24-7.51,15.32-18.44,21.84a29.72,29.72,0,0,1-3.22,1.66,1.9,1.9,0,0,0-1.36,1.42c-.16.49-.44,1.13-.87,1.13-.76,0-2.45-3.38-2.45-4.21,0-.4.06-.44.44-1.28a34.56,34.56,0,0,0,.44-5.33c.16-5.73.16-13.77.16-19.64,0-1.66,0-8.67-.44-9.6-.76-1.51-3.48-1.81-4.84-1.91a2.09,2.09,0,0,1,2-1.81c2.67,0,7.18,2,7.18,3.63,0,.39-.11.44-.59.83-.22.15-.49.39-.55,1.31-.38,6.37-.6,27.87-.6,32.72,5.55-2.06,16.38-9.16,22-21.5l1.15.74Z"/><path class="cls-4" d="M564.4,29.84c.66-.14.76-.19,1.64-1,.43-.44.48-.49.64-.49.77,0,4,4,4,4.61s-1.74.63-2.18.68a6.44,6.44,0,0,0-.54,1,96.93,96.93,0,0,1-6.53,10.72,59.68,59.68,0,0,1-31,21.25l-.59-1.42A55.7,55.7,0,0,0,555.1,48.5a50.81,50.81,0,0,0,10.55-16.9c-4.95.25-11.59,1.08-12.3,1.18-.32,0-1.63.34-2,.34-.6,0-.71-.14-1.8-1.42-6,7.88-14.31,13.81-18.39,15.82l-.86-1.18c11.26-6.9,19.85-20,19.85-21.54,0-.39-1-2-3.7-2.2.27-.49.82-1.57,1.8-1.57,2,0,6.26,3.48,6.26,5,0,.69-.77.83-1.42,1-.16,0-.33.25-.33.34-1.25,1.87-1.3,1.91-2.34,3.28,1.09,0,1.58-.05,6.26-.39l7.67-.39Z"/><path class="cls-4" d="M583.14,23.47c3.36,0,6.08,2.8,6.08,3.68,0,.33-.1.44-.76,1.08-.16.14-.16.53-.16.63,0,2.65-.27,12.88-.27,14.64,0,.78.11,4.26,0,5-.11,1.52-1,1.76-1.36,1.76-1.47,0-1.91-4.16-1.91-5a13.91,13.91,0,0,1,.33-1.42,69.35,69.35,0,0,0,.33-7.94c0-1.27,0-8.42-.27-9.06s-2.34-1.61-3.87-1.61c.44-1.27.82-1.67,1.86-1.67m2.23,40.79c9.41-1.36,15.55-4.65,18.88-7.78,4.18-4,5.76-9.94,5.76-23.11,0-2.35-.11-8.38-.65-9.21-.33-.49-2.18-1.37-4.68-1.27.43-1.37.82-2.06,2.18-2.06,2.83,0,6.8,2,6.8,3.68,0,.29-.11.43-.66.92-.11.1-.11.15-.11.74,0,3.13.06,8.13,0,11.26,0,12.54-2.83,18.46-8.48,22.23s-12.52,5.39-18.72,6.07l-.32-1.47Z"/><path class="cls-4" d="M637.34,31.9a2,2,0,0,0,1.68.53c.88,0,16.22-1.12,17-1.51.17-.1.82-.69,1-.79a.66.66,0,0,1,.38-.14,24.44,24.44,0,0,1,3.81,1.32c.71.34,1.31.68,1.31,1.42,0,1.17-1,1.17-1.64,1.17s-4.19-.24-4.62-.24c-2.77,0-15.13.88-16.32,1.47-.16.1-.66.63-.82.73a.92.92,0,0,1-.44.1c-1.3,0-3.8-2.94-3.8-5.29A1.58,1.58,0,0,1,636,29a3.74,3.74,0,0,0,1.36,2.94m-9.63,21.79c.49.53,2.67.53,3.75.53,2.72,0,14.8-.53,17.25-.63s16.43-.54,17.79-1.18a5.36,5.36,0,0,1,1-.58A36.16,36.16,0,0,1,673,53.49c1.08.49,1.35,1,1.35,1.62a1.54,1.54,0,0,1-1.52,1.52c-.55,0-4-.59-4.79-.69-3-.35-8.16-.35-8.92-.35-5,0-26.06.79-28.51,2.06a1.74,1.74,0,0,0-.6.49.63.63,0,0,1-.49.2c-1.9,0-4.57-4.07-4.57-5.88a2.22,2.22,0,0,1,1.2-2.2,7.54,7.54,0,0,0,1.58,3.43Z"/><path class="cls-4" d="M680.55,36.65c1.74,1,6.7,4,6.7,7.88,0,.54,0,2.25-1.42,2.25-.87,0-1-.53-1.47-1.81a15.19,15.19,0,0,0-4.57-7.35l.76-1m11.05-3.43c5.11,3,5.66,6.71,5.66,7.93,0,2.6-1.47,2.7-1.69,2.7-.93,0-1.09-.93-1.36-2.65a11.81,11.81,0,0,0-3.49-7.15l.88-.83M684.74,62.7a41.21,41.21,0,0,0,18.06-13A42.45,42.45,0,0,0,708.73,38c0-.59-1.41-1.62-2.5-1.86.16-.49.33-1,1.42-1,1.63,0,4.73,2.79,4.73,4.21,0,.49-1,.64-1.36.69a37,37,0,0,1-10.34,15.32A46.21,46.21,0,0,1,685.29,64l-.55-1.32Z"/><path class="cls-4" d="M756,29.84c.65-.14.76-.19,1.64-1,.43-.44.49-.49.65-.49.76,0,4,4,4,4.61s-1.74.63-2.18.68a6.44,6.44,0,0,0-.54,1A95.3,95.3,0,0,1,753,45.36a59.73,59.73,0,0,1-31,21.25l-.6-1.42A55.65,55.65,0,0,0,746.67,48.5a50.82,50.82,0,0,0,10.56-16.9c-5,.25-11.6,1.08-12.3,1.18-.33,0-1.63.34-2,.34-.6,0-.71-.14-1.8-1.42-6,7.88-14.3,13.81-18.38,15.82l-.87-1.18c11.26-6.9,19.86-20,19.86-21.54,0-.39-1-2-3.71-2.2.27-.49.82-1.57,1.8-1.57,2,0,6.26,3.48,6.26,5,0,.69-.77.83-1.42,1-.16,0-.32.25-.32.34-1.26,1.87-1.31,1.91-2.35,3.28,1.09,0,1.58-.05,6.26-.39l7.67-.39Z"/></svg>